<?xml version="1.0" standalone="no"?>
<!DOCTYPE svg PUBLIC "-//W3C//DTD SVG 20010904//EN"
 "http://www.w3.org/TR/2001/REC-SVG-20010904/DTD/svg10.dtd">
<svg version="1.0" xmlns="http://www.w3.org/2000/svg"
 width="1080.000000pt" height="1080.000000pt" viewBox="0 0 1080.000000 1080.000000"
 preserveAspectRatio="xMidYMid meet">

<g transform="translate(0.000000,1080.000000) scale(0.100000,-0.100000)"
fill="#000000" stroke="none">
<path d="M8088 7386 c-89 -24 -157 -84 -195 -172 -15 -35 -17 -78 -14 -414 1
-206 5 -385 8 -398 4 -18 10 -10 27 41 76 225 281 377 508 377 37 0 300 -34
585 -75 285 -41 522 -75 528 -75 11 0 -1072 603 -1215 676 -96 50 -159 61
-232 40z"/>
<path d="M6874 6885 c-115 -29 -227 -85 -323 -163 l-25 -20 59 -81 c32 -45 64
-86 70 -91 7 -6 26 3 55 27 99 78 255 133 381 133 137 0 303 -70 417 -175 l68
-63 40 37 c21 20 59 54 84 75 l44 39 -78 74 c-170 161 -358 234 -593 232 -78
0 -133 -7 -199 -24z"/>
<path d="M6955 6526 c-68 -17 -182 -71 -227 -106 -20 -17 -42 -30 -47 -30 -19
0 -12 -17 22 -52 17 -18 49 -53 70 -77 l37 -43 33 28 c17 15 59 40 92 56 51
24 73 28 141 28 70 0 89 -4 140 -30 32 -16 83 -53 113 -81 l53 -52 76 77 c88
88 88 84 -2 158 -145 117 -338 165 -501 124z"/>
<path d="M9890 6441 c68 -99 94 -186 95 -311 0 -173 -24 -224 -215 -465 -70
-88 -230 -291 -357 -451 l-231 -292 642 385 c352 211 658 401 678 420 108 105
109 291 2 398 -18 18 -169 108 -336 200 -166 92 -307 170 -311 172 -5 3 10
-22 33 -56z"/>
<path d="M1371 6392 c-67 -36 -90 -121 -48 -183 46 -69 142 -76 204 -14 27 27
33 41 33 77 0 55 -30 105 -75 124 -46 19 -73 18 -114 -4z"/>
<path d="M5080 6399 c-122 -50 -114 -212 13 -243 38 -9 99 9 126 38 28 30 38
95 21 136 -23 57 -105 92 -160 69z"/>
<path d="M6502 6359 c-103 -20 -206 -104 -256 -209 l-31 -65 -3 -352 -3 -353
130 0 131 0 0 135 0 135 60 0 60 0 0 140 0 140 -60 0 c-60 0 -60 0 -60 29 0
67 45 131 92 131 l28 0 0 134 c0 113 -2 135 -16 140 -9 3 -19 6 -22 5 -4 -1
-26 -5 -50 -10z"/>
<path d="M250 5866 l0 -486 140 0 140 0 0 345 0 345 88 0 c138 0 210 -30 246
-103 23 -48 24 -152 2 -196 -37 -71 -117 -111 -223 -111 l-53 0 0 -142 0 -141
98 6 c165 10 271 56 367 158 127 136 159 367 76 545 -37 79 -117 161 -193 198
-106 51 -154 58 -430 63 l-258 5 0 -486z"/>
<path d="M2260 5865 l0 -485 130 0 130 0 0 485 0 485 -130 0 -130 0 0 -485z"/>
<path d="M7896 5775 c17 -1138 18 -1166 40 -1216 30 -66 78 -114 142 -146 75
-37 174 -38 242 -4 50 26 660 389 674 402 5 4 -18 1 -50 -8 -82 -21 -239 -14
-319 15 -114 42 -219 128 -282 234 -29 48 -389 934 -434 1068 -19 55 -19 54
-13 -345z"/>
<path d="M3290 6100 c-109 -23 -217 -108 -263 -208 -18 -39 -22 -65 -22 -152
0 -101 1 -108 34 -168 138 -254 486 -266 646 -24 27 42 55 138 55 192 0 145
-106 298 -240 345 -55 19 -154 26 -210 15z m151 -289 c64 -64 20 -171 -70
-171 -60 0 -106 43 -106 100 0 90 112 135 176 71z"/>
<path d="M4073 6101 c-53 -14 -122 -60 -154 -103 -52 -73 -59 -117 -59 -380
l0 -238 130 0 130 0 0 205 c0 219 6 255 45 255 46 0 50 -19 53 -247 l4 -213
129 0 129 0 0 218 c0 156 3 221 12 230 18 18 56 14 68 -7 6 -12 10 -104 10
-230 l0 -211 131 0 130 0 -4 258 c-4 290 -8 308 -74 382 -96 106 -242 115
-361 21 l-50 -40 -28 30 c-55 57 -165 89 -241 70z"/>
<path d="M5673 6100 c-93 -19 -183 -94 -226 -188 -20 -43 -22 -66 -25 -289
l-4 -243 131 0 131 0 0 211 c0 126 4 218 10 230 7 13 21 19 45 19 24 0 38 -6
45 -19 6 -12 10 -104 10 -230 l0 -211 130 0 130 0 0 203 c0 221 -9 296 -45
367 -57 113 -198 177 -332 150z"/>
<path d="M6971 6099 c-112 -19 -211 -93 -268 -201 -25 -48 -28 -63 -28 -153 0
-87 3 -107 27 -157 69 -148 232 -234 396 -208 81 13 132 39 198 101 76 73 108
149 108 259 0 108 -31 183 -107 258 -88 87 -202 122 -326 101z m140 -288 c65
-66 20 -171 -74 -171 -70 0 -119 61 -103 126 19 75 121 101 177 45z"/>
<path d="M1300 5735 l0 -355 130 0 130 0 0 355 0 355 -130 0 -130 0 0 -355z"/>
<path d="M2599 5967 l-62 -123 83 -232 83 -232 144 0 c78 0 143 2 143 4 0 2
-43 104 -95 226 l-95 221 65 129 65 130 -135 0 -135 0 -61 -123z"/>
<path d="M4990 5735 l0 -355 130 0 130 0 0 355 0 355 -130 0 -130 0 0 -355z"/>
<path d="M1997 6069 c-85 -20 -153 -72 -182 -141 -8 -21 -19 -78 -24 -127 -5
-50 -14 -99 -20 -110 -17 -31 -52 -51 -88 -51 l-33 0 0 -141 0 -142 79 7 c103
8 160 29 215 77 55 49 92 123 107 220 16 100 31 127 74 135 l35 6 0 139 0 139
-62 -1 c-35 -1 -80 -5 -101 -10z"/>
<path d="M8600 6040 c0 -28 2 -30 40 -30 l40 0 0 -130 0 -130 35 0 35 0 0 130
0 130 45 0 c43 0 45 1 45 30 l0 30 -120 0 -120 0 0 -30z"/>
<path d="M8873 6055 c4 -8 27 -81 53 -161 l46 -145 41 3 40 3 53 158 52 157
-37 0 -37 0 -34 -126 c-23 -87 -36 -121 -41 -108 -4 11 -20 66 -36 124 l-29
105 -38 3 c-32 3 -38 1 -33 -13z"/>
<path d="M3294 5234 c-17 -8 -37 -27 -43 -41 -17 -38 -25 -139 -16 -217 5 -54
12 -74 35 -99 l28 -32 106 0 c99 0 107 1 131 25 32 33 49 121 42 221 -7 94
-20 124 -62 144 -44 20 -179 20 -221 -1z m184 -70 c20 -14 22 -23 22 -119 0
-96 -2 -105 -22 -119 -13 -10 -43 -16 -73 -16 -30 0 -60 6 -73 16 -20 14 -22
23 -22 119 0 96 2 105 22 119 13 10 43 16 73 16 30 0 60 -6 73 -16z"/>
<path d="M4601 5237 c-46 -23 -61 -57 -68 -147 -7 -108 9 -189 43 -221 24 -22
34 -24 130 -24 97 0 105 2 129 25 32 33 49 121 42 221 -7 94 -20 124 -62 144
-40 18 -179 20 -214 2z m177 -73 c20 -14 22 -23 22 -119 0 -96 -2 -105 -22
-119 -13 -10 -43 -16 -73 -16 -30 0 -60 6 -73 16 -20 14 -22 23 -22 119 0 81
3 107 16 119 21 22 122 22 152 0z"/>
<path d="M3630 5045 l0 -195 35 0 35 0 0 195 0 195 -35 0 -35 0 0 -195z"/>
<path d="M3785 5195 c-14 -25 -36 -65 -50 -89 -14 -25 -25 -50 -25 -56 0 -6
24 -54 53 -106 l52 -94 43 0 c49 0 51 -11 -22 113 -25 43 -46 82 -46 87 0 5
23 47 50 94 28 47 50 87 50 90 0 3 -18 6 -40 6 -36 0 -41 -4 -65 -45z"/>
<path d="M3950 5045 l0 -195 35 0 35 0 0 195 0 195 -35 0 -35 0 0 -195z"/>
<path d="M4274 5221 c-42 -26 -54 -66 -54 -180 0 -154 37 -191 190 -191 l80 0
0 35 0 35 -83 0 c-51 0 -88 5 -95 12 -8 8 -12 48 -12 114 0 127 6 134 117 134
l73 0 0 30 0 30 -92 0 c-74 0 -99 -4 -124 -19z"/>
<path d="M4948 5229 c-16 -9 -18 -29 -18 -194 l0 -185 35 0 35 0 0 162 c0 89
3 158 7 154 4 -4 24 -68 44 -142 21 -75 45 -144 55 -155 21 -23 71 -25 102 -3
21 15 22 20 22 195 l0 179 -35 0 -35 0 0 -162 c0 -89 -4 -158 -8 -152 -5 5
-25 72 -46 148 -20 77 -42 146 -48 153 -12 15 -85 17 -110 2z"/>
<path d="M5318 5229 c-16 -9 -18 -29 -18 -194 l0 -185 35 0 35 0 0 162 c0 96
4 158 9 153 5 -6 25 -71 45 -145 21 -74 44 -143 53 -152 20 -22 71 -23 101 -2
21 15 22 20 22 195 l0 179 -35 0 -35 0 0 -162 c0 -92 -4 -158 -9 -152 -4 5
-25 72 -46 149 -20 79 -44 145 -53 153 -19 14 -80 15 -104 1z"/>
<path d="M5680 5220 c-18 -18 -20 -33 -20 -179 0 -198 -6 -191 152 -191 l108
0 0 35 0 35 -95 0 -95 0 0 50 0 50 90 0 90 0 0 30 0 30 -90 0 -90 0 0 50 0 50
95 0 95 0 0 30 0 30 -110 0 c-97 0 -112 -2 -130 -20z"/>
<path d="M6019 5225 c-43 -23 -59 -71 -59 -177 0 -159 39 -201 185 -196 l80 3
3 33 3 32 -83 0 c-52 0 -89 5 -96 12 -8 8 -12 48 -12 113 0 129 5 135 113 135
l77 0 0 30 0 30 -92 0 c-61 -1 -102 -6 -119 -15z"/>
<path d="M6270 5210 c0 -29 1 -30 50 -30 l50 0 2 -162 3 -163 38 -3 37 -3 0
165 0 166 50 0 c49 0 50 1 50 30 l0 30 -140 0 -140 0 0 -30z"/>
<path d="M6610 5220 c-18 -18 -20 -33 -20 -179 0 -198 -6 -191 152 -191 l108
0 0 35 0 35 -95 0 -95 0 0 50 0 50 90 0 90 0 0 30 0 30 -90 0 -90 0 0 50 0 50
95 0 95 0 0 30 0 30 -110 0 c-97 0 -112 -2 -130 -20z"/>
<path d="M6910 5045 l0 -195 93 0 c183 0 207 22 207 193 0 174 -22 197 -195
197 l-105 0 0 -195z m204 114 c25 -19 26 -25 26 -111 0 -117 -8 -128 -97 -128
l-63 0 0 130 0 130 54 0 c39 0 60 -6 80 -21z"/>
</g>
</svg>
