<?xml version="1.0" standalone="no"?>
<!DOCTYPE svg PUBLIC "-//W3C//DTD SVG 20010904//EN"
 "http://www.w3.org/TR/2001/REC-SVG-20010904/DTD/svg10.dtd">
<svg version="1.0" xmlns="http://www.w3.org/2000/svg"
 width="468.000000pt" height="533.000000pt" viewBox="0 0 468.000000 533.000000"
 preserveAspectRatio="xMidYMid meet">

<g transform="translate(0.000000,533.000000) scale(0.100000,-0.100000)"
fill="#000000" stroke="none">
<path d="M1920 5224 c-262 -23 -483 -63 -715 -130 -282 -82 -603 -210 -771
-307 -32 -19 -88 -50 -124 -70 -130 -69 -195 -114 -198 -134 -2 -15 32 -53
125 -140 124 -117 327 -295 400 -350 l36 -27 -7 -1086 -8 -1085 25 -125 c29
-143 73 -265 152 -418 155 -304 356 -533 649 -740 34 -24 68 -46 76 -49 8 -4
33 -18 55 -33 68 -45 236 -117 311 -133 123 -27 232 -101 319 -215 27 -34 52
-65 56 -68 4 -2 24 20 43 49 44 66 136 155 196 189 25 15 90 38 145 52 414
108 802 405 1027 786 104 177 167 338 203 518 24 118 25 140 25 491 0 202 3
706 7 1120 l6 752 146 132 c80 73 177 162 216 198 38 36 94 87 123 114 28 26
52 53 52 60 0 29 -384 247 -570 325 -41 17 -95 41 -120 52 -141 64 -483 167
-710 212 -356 72 -780 94 -1170 60z m930 -38 c221 -35 364 -64 445 -87 323
-94 515 -166 735 -273 219 -107 457 -246 440 -258 -7 -5 -200 -179 -225 -203
-11 -11 -63 -58 -115 -105 -52 -47 -113 -102 -135 -123 -22 -22 -45 -42 -52
-46 -9 -5 -14 -283 -21 -1171 -9 -1138 -10 -1167 -30 -1245 -30 -112 -60 -199
-99 -283 -18 -40 -33 -75 -33 -77 0 -7 -71 -127 -109 -185 -80 -123 -175 -230
-309 -353 -45 -41 -205 -157 -216 -157 -5 0 -17 -6 -25 -14 -59 -53 -331 -167
-478 -201 -98 -23 -210 -109 -290 -222 l-30 -42 -39 52 c-89 117 -203 192
-334 222 -41 9 -103 29 -138 46 -34 16 -64 29 -66 29 -9 0 -175 99 -231 139
-33 23 -80 56 -105 73 -94 66 -319 306 -399 427 -13 20 -28 38 -33 39 -4 2 -8
9 -8 15 0 6 -6 18 -14 26 -25 27 -154 285 -169 339 -9 28 -21 60 -27 72 -6 11
-21 62 -32 113 -21 91 -22 100 -19 1217 l3 1125 -90 72 c-149 119 -472 415
-472 432 0 27 506 298 641 344 24 8 67 25 94 37 28 12 100 37 160 56 61 19
119 39 130 43 11 5 40 13 65 20 25 6 88 22 140 36 132 33 379 75 545 91 96 9
243 12 465 9 289 -3 342 -6 480 -29z"/>
<path d="M1985 5140 c-209 -18 -481 -61 -650 -103 -196 -49 -480 -139 -559
-178 -22 -10 -43 -19 -48 -19 -5 0 -69 -29 -144 -65 -75 -36 -142 -65 -149
-65 -8 0 -16 -4 -20 -9 -3 -6 -47 -33 -98 -61 -145 -81 -140 -74 -85 -123 26
-23 65 -56 85 -73 21 -18 74 -63 118 -101 44 -38 117 -99 162 -136 45 -37 95
-80 112 -96 l31 -29 -6 -1078 -7 -1079 23 -110 c42 -203 147 -459 252 -614
170 -249 413 -464 673 -598 44 -22 91 -44 105 -48 14 -4 48 -18 76 -31 28 -13
78 -27 112 -33 108 -17 229 -100 304 -208 16 -24 30 -43 32 -43 2 0 15 18 30
40 73 111 162 177 281 210 454 127 790 380 1022 770 85 142 163 349 192 507
20 105 23 238 30 1288 l6 1040 30 31 c46 47 305 274 365 319 75 57 120 96 120
104 0 15 -169 113 -325 188 -49 24 -98 48 -107 53 -74 41 -363 147 -522 191
-61 17 -120 35 -131 40 -47 22 -373 81 -575 104 -164 19 -584 27 -735 15z
m738 -80 c346 -40 724 -134 1031 -257 189 -75 516 -243 516 -264 0 -4 -26 -28
-59 -53 -71 -55 -103 -82 -146 -121 -189 -173 -227 -205 -244 -205 -6 0 -42
14 -79 31 -340 157 -669 258 -957 293 -71 9 -162 21 -200 27 -179 25 -596 8
-873 -36 -234 -38 -575 -145 -842 -265 -122 -54 -114 -54 -164 -12 -24 20 -90
75 -147 122 -56 47 -140 118 -186 159 -76 66 -82 75 -66 86 22 15 322 166 383
193 187 82 291 119 510 181 213 60 537 117 770 134 25 2 165 4 313 5 210 2
304 -2 440 -18z m-1061 -1966 c47 -33 53 -70 11 -59 -43 10 -96 85 -61 85 7 0
29 -12 50 -26z m-54 -35 c4 -11 19 -26 32 -32 33 -17 36 -40 10 -77 -33 -47
-62 -48 -114 -6 -50 42 -51 58 -6 106 33 35 67 39 78 9z m-81 -135 c18 -14 33
-34 33 -46 0 -17 -4 -19 -27 -13 -16 4 -28 7 -29 8 0 1 -8 15 -17 30 -16 25
-16 47 0 47 3 0 21 -11 40 -26z m-65 -21 c10 -9 18 -22 18 -30 0 -7 6 -13 13
-13 7 0 21 -6 31 -13 17 -13 17 -15 2 -45 -9 -17 -30 -39 -47 -48 -29 -15 -32
-14 -53 4 -11 11 -31 25 -43 31 -13 6 -23 20 -23 30 0 16 65 101 77 101 4 0
15 -7 25 -17z m-73 -138 c26 -13 41 -33 41 -56 0 -11 -41 -12 -55 -1 -9 6 -35
56 -35 67 0 9 21 5 49 -10z m978 -54 c13 -19 23 -41 23 -50 -1 -9 -10 1 -21
22 -12 24 -27 37 -39 37 -11 0 -20 -4 -20 -10 0 -5 -4 -10 -10 -10 -14 0 -13
23 2 38 19 19 40 10 65 -27z m-1024 9 c7 -10 25 -24 40 -29 35 -14 36 -53 2
-86 -28 -29 -42 -30 -69 -10 -11 8 -33 15 -48 15 -16 0 -31 6 -34 13 -7 19 13
67 38 95 26 27 52 28 71 2z m912 4 c17 -17 13 -42 -13 -83 -10 -14 -18 -19
-20 -11 -2 6 1 17 7 23 19 19 13 54 -10 60 -12 3 -18 10 -14 16 9 16 31 13 50
-5z m-31 -45 c-3 -5 -10 -7 -15 -3 -5 3 -7 10 -3 15 3 5 10 7 15 3 5 -3 7 -10
3 -15z m116 11 c0 -5 -4 -10 -10 -10 -5 0 -10 5 -10 10 0 6 5 10 10 10 6 0 10
-4 10 -10z m-140 -45 c0 -13 -45 -95 -52 -95 -12 0 -10 5 14 55 18 38 38 59
38 40z m188 -37 c24 -47 28 -63 12 -53 -10 6 -50 78 -50 90 0 17 18 -1 38 -37z
m-1075 -30 c9 -5 17 -15 17 -22 0 -17 -49 -28 -64 -15 -6 6 -20 16 -30 23 -46
31 20 44 77 14z m-60 -46 c12 -13 26 -17 47 -14 27 4 30 1 30 -22 0 -14 -8
-42 -17 -62 -17 -35 -19 -36 -62 -30 -24 3 -54 6 -67 6 -21 0 -23 3 -17 33 10
54 37 107 54 107 9 0 23 -8 32 -18z m1222 -14 c7 -18 11 -35 9 -37 -7 -7 -31
22 -39 47 -10 35 14 27 30 -10z m-349 -15 c-10 -10 -19 5 -10 18 6 11 8 11 12
0 2 -7 1 -15 -2 -18z m44 12 c0 -14 -32 -66 -37 -61 -8 7 17 66 28 66 5 0 9
-2 9 -5z m270 -5 c0 -5 -7 -10 -15 -10 -8 0 -15 5 -15 10 0 6 7 10 15 10 8 0
15 -4 15 -10z m-353 -80 c-11 -27 -25 -50 -29 -50 -12 0 -10 13 12 58 29 59
43 52 17 -8z m402 -12 c29 -50 11 -49 -23 0 -28 41 -38 79 -13 52 8 -8 24 -32
36 -52z m-1219 -43 c17 -20 4 -35 -30 -35 -41 0 -80 17 -80 35 0 21 92 21 110
0z m1294 -20 c23 -35 21 -82 -4 -90 -20 -6 -50 9 -50 26 0 4 9 11 20 14 21 7
27 39 10 50 -5 3 -10 10 -10 16 0 17 18 9 34 -16z m-534 -15 c0 -5 -5 -10 -11
-10 -5 0 -7 5 -4 10 3 6 8 10 11 10 2 0 4 -4 4 -10z m33 -21 c-29 -50 -48 -62
-72 -49 -23 12 -26 27 -10 50 8 11 12 12 16 3 8 -21 51 -15 58 7 3 11 11 20
16 20 6 0 2 -14 -8 -31z m-868 7 c15 -10 25 -11 43 -3 43 20 65 -33 41 -102
-11 -30 -13 -31 -70 -31 -55 0 -60 2 -70 27 -9 24 -4 95 8 116 7 11 27 8 48
-7z m1182 -62 c74 -25 129 -71 171 -144 34 -60 37 -71 37 -145 0 -69 -4 -88
-30 -139 -96 -189 -352 -229 -503 -78 -59 59 -85 123 -86 212 0 66 4 83 33
142 70 138 229 202 378 152z m-1117 -103 c0 -23 -35 -34 -79 -25 -29 6 -40 22
-24 37 3 4 28 7 55 7 40 0 48 -3 48 -19z m31 -80 c14 -48 -2 -91 -33 -91 -13
0 -39 -3 -58 -6 -32 -5 -37 -3 -48 20 -12 26 -17 98 -7 107 2 3 34 5 70 5 l65
0 11 -35z m-6 -120 c9 -15 -37 -41 -72 -41 -26 0 -33 4 -33 19 0 11 6 22 13
24 21 9 86 7 92 -2z m45 -63 c25 -42 27 -88 3 -88 -10 0 -33 -9 -51 -20 -41
-25 -67 -19 -87 20 -30 58 -16 90 40 90 12 0 28 7 35 15 19 23 39 18 60 -17z
m30 -117 c0 -18 -36 -49 -62 -55 -25 -6 -28 -3 -28 18 0 17 8 27 28 34 35 13
62 14 62 3z m67 -60 c13 -19 23 -41 23 -50 -1 -18 -78 -71 -104 -71 -8 0 -28
18 -42 40 -30 45 -24 64 26 75 16 4 30 14 33 26 8 30 37 20 64 -20z m49 -103
c-3 -7 -9 -21 -12 -30 -3 -9 -19 -22 -34 -28 -53 -22 -69 14 -22 49 30 23 77
29 68 9z m79 -43 c14 -13 25 -30 25 -37 -1 -7 -22 -32 -49 -55 -43 -37 -50
-40 -71 -30 -14 7 -31 24 -39 39 -13 22 -13 29 -2 42 7 9 21 16 31 16 9 0 22
11 28 25 15 32 46 32 77 0z m49 -73 c20 -32 -60 -100 -86 -74 -8 8 -1 21 27
47 40 36 50 41 59 27z m1426 -1 c0 -5 -15 -20 -32 -32 l-33 -23 30 32 c33 35
35 36 35 23z m-1341 -46 c41 -21 44 -40 12 -78 -15 -17 -31 -40 -34 -51 -12
-32 -82 -2 -109 47 -12 22 6 47 33 47 12 0 19 7 19 18 0 36 31 42 79 17z
m1261 -19 c-25 -31 -265 -108 -410 -131 -131 -22 -282 -78 -386 -144 -84 -54
-94 -58 -94 -38 1 13 72 64 135 95 119 58 235 94 375 117 121 20 266 59 330
89 66 30 66 30 50 12z m-1164 -63 c27 -11 86 -18 194 -24 113 -5 174 -13 225
-29 104 -32 100 -29 88 -41 -8 -8 -34 -6 -89 7 -66 14 -107 16 -259 11 -247
-9 -283 2 -222 71 24 26 16 26 63 5z m710 -159 c47 -17 114 -69 114 -90 0 -20
-6 -18 -48 15 -50 39 -121 77 -160 86 -18 3 -32 10 -32 14 0 18 15 19 49 5 20
-9 54 -22 77 -30z"/>
<path d="M2222 4947 c-6 -7 -17 -48 -24 -90 -7 -43 -17 -78 -22 -78 -5 0 -17
32 -27 71 -10 39 -21 75 -24 80 -4 6 -22 10 -42 10 l-36 0 6 -47 c4 -27 10
-90 13 -141 5 -63 11 -95 20 -99 25 -9 30 6 23 74 -11 119 13 94 47 -49 4 -21
12 -28 29 -28 21 0 24 7 35 81 7 44 16 77 21 72 4 -4 9 -39 11 -78 3 -62 5
-70 23 -70 19 0 20 5 16 140 -2 77 -8 146 -13 153 -13 16 -43 16 -56 -1z"/>
<path d="M2340 4801 l0 -152 88 3 c79 3 87 5 87 23 0 17 -8 21 -65 25 l-65 5
0 35 0 35 60 0 c54 0 60 2 63 22 3 19 -3 22 -45 28 -26 3 -55 7 -63 8 -9 1
-15 13 -15 27 0 24 3 25 68 28 64 3 67 4 67 27 0 24 -3 25 -67 25 -38 0 -78 3
-90 6 l-23 6 0 -151z"/>
<path d="M1852 4925 c-71 -31 -81 -155 -19 -237 37 -48 76 -63 125 -47 42 14
62 54 62 126 0 120 -82 196 -168 158z m90 -62 c21 -24 30 -58 30 -105 -1 -47
-16 -68 -47 -68 -42 0 -55 12 -71 66 -22 77 -5 124 46 124 15 0 34 -8 42 -17z"/>
<path d="M2576 4931 c-2 -3 -9 -66 -16 -140 -12 -137 -8 -160 24 -148 12 5 16
21 16 62 0 52 2 56 21 53 24 -3 30 -11 60 -80 16 -39 25 -48 45 -48 29 0 28
12 -8 88 -11 24 -19 44 -17 45 2 1 13 7 24 13 28 15 41 74 25 113 -13 32 -22
35 -123 44 -26 3 -49 2 -51 -2z m108 -61 c31 -11 35 -45 7 -60 -28 -15 -81 -2
-81 20 0 48 22 60 74 40z"/>
<path d="M1687 4908 c-9 -7 -28 -39 -42 -71 -24 -55 -45 -68 -45 -28 0 38 -22
81 -41 81 -25 0 -25 0 12 -151 30 -120 33 -129 56 -129 24 0 24 0 8 70 -2 8 2
25 9 38 l13 24 29 -35 c16 -20 37 -47 47 -62 14 -20 24 -24 40 -19 12 3 24 8
26 10 2 2 -24 37 -57 78 l-62 74 25 56 c14 31 25 61 25 66 0 14 -23 12 -43 -2z"/>
<path d="M2815 4873 c-4 -27 -13 -86 -21 -133 -8 -47 -14 -90 -14 -96 0 -12
29 -28 37 -21 2 2 14 66 28 142 19 108 22 141 12 147 -26 16 -36 7 -42 -39z"/>
<path d="M2916 4883 c-3 -10 -15 -72 -27 -137 -21 -117 -21 -122 8 -129 4 -1
14 29 23 67 8 38 20 71 25 73 6 2 18 -33 28 -76 14 -63 22 -81 38 -86 11 -4
22 -5 24 -3 7 6 65 247 65 267 0 14 -6 21 -19 21 -19 0 -31 -32 -46 -127 -4
-24 -10 -43 -14 -43 -3 0 -18 42 -32 93 -21 76 -29 93 -46 95 -14 2 -23 -3
-27 -15z"/>
<path d="M1340 4835 c0 -8 11 -45 25 -82 13 -37 22 -69 20 -72 -3 -2 -34 28
-71 68 -46 50 -73 71 -90 71 -13 0 -24 -4 -24 -10 0 -5 18 -54 39 -107 39 -97
57 -153 49 -153 -2 0 -48 52 -102 115 -54 63 -101 115 -104 115 -4 0 -13 -4
-21 -9 -12 -8 -12 -23 -2 -103 21 -156 30 -188 52 -188 15 0 19 7 19 39 0 37
2 39 36 46 29 5 41 2 58 -14 24 -22 51 -27 61 -11 3 6 17 10 31 10 13 0 24 2
24 5 0 2 -12 34 -27 70 -14 36 -23 68 -20 72 4 3 36 -23 72 -60 61 -63 87 -78
99 -59 3 5 -13 60 -35 123 -23 63 -43 122 -46 132 -6 21 -43 23 -43 2z m-202
-177 c23 -36 21 -48 -9 -48 -11 0 -19 7 -19 18 0 9 -3 27 -6 40 -9 33 11 27
34 -10z"/>
<path d="M3167 4802 c-56 -57 -75 -155 -41 -207 22 -34 81 -51 127 -36 27 9
38 21 51 54 25 65 22 74 -25 82 -30 5 -44 3 -50 -6 -15 -23 -10 -39 11 -39 22
0 26 -20 8 -38 -33 -33 -88 2 -88 55 0 42 26 100 51 113 30 17 68 4 79 -26 13
-34 44 -28 48 8 5 43 -36 78 -91 78 -37 0 -48 -6 -80 -38z"/>
<path d="M3482 4718 c-11 -29 -35 -84 -52 -121 -31 -69 -35 -102 -12 -102 12
0 122 227 122 251 0 10 -21 24 -35 24 -2 0 -13 -24 -23 -52z"/>
<path d="M3534 4613 c-32 -65 -59 -121 -61 -125 -4 -8 101 -58 122 -58 10 0
25 20 25 34 0 2 -20 11 -45 20 -25 10 -45 20 -45 22 0 2 23 50 52 105 41 82
48 103 37 110 -8 5 -17 9 -20 9 -4 0 -33 -53 -65 -117z"/>
<path d="M826 4675 c-53 -49 -15 -167 74 -226 55 -37 81 -36 125 2 48 42 47
47 -22 148 -2 2 -21 -4 -43 -14 -34 -15 -38 -20 -29 -37 8 -14 17 -18 34 -14
33 8 49 -14 29 -42 -28 -41 -84 -22 -123 42 -30 47 -28 93 4 108 18 8 28 8 39
-1 16 -13 56 -6 56 9 0 5 -12 18 -26 29 -36 29 -85 27 -118 -4z"/>
<path d="M3729 4582 c-23 -37 -57 -89 -75 -117 -33 -52 -35 -65 -6 -65 11 0
42 41 85 111 37 60 67 114 67 118 0 5 -6 11 -14 14 -10 4 -29 -16 -57 -61z"/>
<path d="M3772 4493 c-67 -87 -79 -109 -70 -121 11 -12 18 -8 49 28 45 52 64
47 55 -14 -3 -22 -8 -51 -12 -63 -4 -15 0 -24 14 -32 19 -10 21 -6 34 51 11
54 16 62 37 63 30 2 81 58 81 88 0 12 -6 29 -13 37 -12 16 -81 70 -88 70 -3 0
-42 -48 -87 -107z m135 -13 c-3 -32 -45 -40 -70 -12 -16 18 -16 20 4 45 20 26
21 26 45 9 16 -11 23 -25 21 -42z"/>
<path d="M663 4572 c-48 -7 -66 -71 -39 -135 17 -40 81 -102 120 -117 53 -20
106 13 106 66 0 46 -12 73 -58 125 -41 46 -87 68 -129 61z m86 -78 c66 -59 76
-134 19 -134 -31 0 -56 18 -88 62 -34 46 -38 82 -12 97 28 17 40 13 81 -25z"/>
<path d="M2210 2092 c-60 -32 -88 -120 -57 -182 16 -31 71 -60 117 -60 113 0
168 139 87 218 -42 41 -99 50 -147 24z m104 -77 c21 -33 20 -57 -4 -83 -31
-33 -66 -28 -90 11 -25 40 -25 39 1 71 27 34 71 35 93 1z"/>
</g>
</svg>
